<svg width="920" height="300" viewBox="0 0 920 300" fill="none" xmlns="http://www.w3.org/2000/svg">
<rect width="920" height="300" rx="10" fill="white"/>
<path d="M354.25 148V113.091H378.795V120.727H363.727V126.727H377.295V134.364H363.727V148H354.25ZM382.281 148V113.091H397.349C399.94 113.091 402.207 113.602 404.151 114.625C406.094 115.648 407.605 117.085 408.685 118.938C409.764 120.79 410.304 122.955 410.304 125.432C410.304 127.932 409.747 130.097 408.634 131.926C407.531 133.756 405.98 135.165 403.98 136.153C401.991 137.142 399.668 137.636 397.009 137.636H388.009V130.273H395.099C396.213 130.273 397.162 130.08 397.946 129.693C398.741 129.295 399.349 128.733 399.77 128.006C400.202 127.278 400.418 126.42 400.418 125.432C400.418 124.432 400.202 123.58 399.77 122.875C399.349 122.159 398.741 121.614 397.946 121.239C397.162 120.852 396.213 120.659 395.099 120.659H391.759V148H382.281ZM418.49 148H408.263L419.786 113.091H432.74L444.263 148H434.036L426.399 122.705H426.126L418.49 148ZM416.581 134.227H435.808V141.318H416.581V134.227ZM457.188 148V113.091H472.256C474.847 113.091 477.114 113.602 479.057 114.625C481 115.648 482.511 117.085 483.591 118.938C484.67 120.79 485.21 122.955 485.21 125.432C485.21 127.932 484.653 130.097 483.54 131.926C482.438 133.756 480.886 135.165 478.886 136.153C476.898 137.142 474.574 137.636 471.915 137.636H462.915V130.273H470.006C471.119 130.273 472.068 130.08 472.852 129.693C473.648 129.295 474.256 128.733 474.676 128.006C475.108 127.278 475.324 126.42 475.324 125.432C475.324 124.432 475.108 123.58 474.676 122.875C474.256 122.159 473.648 121.614 472.852 121.239C472.068 120.852 471.119 120.659 470.006 120.659H466.665V148H457.188ZM498.233 113.091V148H488.824V113.091H498.233ZM510.322 148.409C508.652 148.409 507.175 148.136 505.891 147.591C504.618 147.034 503.618 146.193 502.891 145.068C502.163 143.943 501.8 142.511 501.8 140.773C501.8 139.341 502.044 138.119 502.533 137.108C503.021 136.085 503.703 135.25 504.578 134.602C505.453 133.955 506.47 133.46 507.629 133.119C508.8 132.778 510.061 132.557 511.413 132.455C512.879 132.341 514.055 132.205 514.942 132.045C515.839 131.875 516.487 131.642 516.885 131.347C517.283 131.04 517.482 130.636 517.482 130.136V130.068C517.482 129.386 517.22 128.864 516.697 128.5C516.175 128.136 515.504 127.955 514.686 127.955C513.788 127.955 513.055 128.153 512.487 128.551C511.93 128.937 511.595 129.534 511.482 130.341H502.822C502.936 128.75 503.442 127.284 504.339 125.943C505.249 124.591 506.572 123.511 508.311 122.705C510.05 121.886 512.22 121.477 514.822 121.477C516.697 121.477 518.379 121.699 519.868 122.142C521.357 122.574 522.624 123.182 523.669 123.966C524.714 124.739 525.51 125.648 526.055 126.693C526.612 127.727 526.891 128.852 526.891 130.068V148H518.095V144.318H517.891C517.368 145.295 516.732 146.085 515.982 146.688C515.243 147.29 514.396 147.727 513.442 148C512.499 148.273 511.459 148.409 510.322 148.409ZM513.391 142.477C514.107 142.477 514.777 142.33 515.402 142.034C516.038 141.739 516.555 141.312 516.953 140.756C517.351 140.199 517.55 139.523 517.55 138.727V136.545C517.3 136.648 517.033 136.744 516.749 136.835C516.476 136.926 516.18 137.011 515.862 137.091C515.555 137.17 515.226 137.244 514.874 137.312C514.533 137.381 514.175 137.443 513.8 137.5C513.072 137.614 512.476 137.801 512.01 138.062C511.555 138.312 511.214 138.625 510.987 139C510.771 139.364 510.663 139.773 510.663 140.227C510.663 140.955 510.919 141.511 511.43 141.898C511.942 142.284 512.595 142.477 513.391 142.477ZM536.176 157.818C535.097 157.818 534.068 157.733 533.091 157.562C532.114 157.403 531.256 157.182 530.517 156.898L532.562 150.216C533.335 150.489 534.04 150.665 534.676 150.744C535.324 150.824 535.875 150.778 536.33 150.608C536.795 150.438 537.131 150.114 537.335 149.636L537.54 149.159L528.335 121.818H538.153L542.381 139.955H542.653L546.949 121.818H556.835L547.29 150.182C546.812 151.625 546.119 152.92 545.21 154.068C544.313 155.227 543.131 156.142 541.665 156.812C540.199 157.483 538.369 157.818 536.176 157.818ZM571.328 158.364C568.703 158.364 566.453 157.989 564.578 157.239C562.714 156.5 561.266 155.477 560.232 154.17C559.209 152.875 558.635 151.386 558.51 149.705H567.578C567.669 150.261 567.896 150.71 568.26 151.051C568.624 151.392 569.089 151.636 569.658 151.784C570.237 151.943 570.885 152.023 571.601 152.023C572.817 152.023 573.822 151.727 574.618 151.136C575.425 150.545 575.828 149.477 575.828 147.932V143.5H575.555C575.214 144.386 574.692 145.142 573.987 145.767C573.283 146.381 572.436 146.852 571.447 147.182C570.459 147.5 569.374 147.659 568.192 147.659C566.328 147.659 564.612 147.227 563.044 146.364C561.487 145.5 560.237 144.131 559.294 142.256C558.362 140.381 557.896 137.932 557.896 134.909C557.896 131.75 558.385 129.182 559.362 127.205C560.351 125.227 561.624 123.778 563.18 122.858C564.749 121.938 566.396 121.477 568.124 121.477C569.419 121.477 570.555 121.705 571.533 122.159C572.51 122.602 573.328 123.199 573.987 123.949C574.646 124.687 575.146 125.5 575.487 126.386H575.692V121.818H585.101V147.932C585.101 150.148 584.527 152.028 583.379 153.574C582.243 155.131 580.641 156.318 578.572 157.136C576.504 157.955 574.089 158.364 571.328 158.364ZM571.669 140.977C572.533 140.977 573.271 140.739 573.885 140.261C574.51 139.773 574.987 139.08 575.317 138.182C575.658 137.273 575.828 136.182 575.828 134.909C575.828 133.614 575.658 132.506 575.317 131.585C574.987 130.653 574.51 129.943 573.885 129.455C573.271 128.955 572.533 128.705 571.669 128.705C570.805 128.705 570.067 128.955 569.453 129.455C568.851 129.943 568.385 130.653 568.055 131.585C567.737 132.506 567.578 133.614 567.578 134.909C567.578 136.205 567.737 137.307 568.055 138.216C568.385 139.114 568.851 139.801 569.453 140.278C570.067 140.744 570.805 140.977 571.669 140.977ZM589.886 148V121.818H599.023V126.795H599.295C599.773 124.955 600.528 123.608 601.562 122.756C602.608 121.903 603.83 121.477 605.227 121.477C605.636 121.477 606.04 121.511 606.438 121.58C606.847 121.636 607.239 121.722 607.614 121.835V129.864C607.148 129.705 606.574 129.585 605.892 129.506C605.21 129.426 604.625 129.386 604.136 129.386C603.216 129.386 602.386 129.597 601.648 130.017C600.92 130.426 600.347 131.006 599.926 131.756C599.506 132.494 599.295 133.364 599.295 134.364V148H589.886ZM621.812 148.477C618.972 148.477 616.54 147.915 614.517 146.79C612.494 145.653 610.943 144.074 609.864 142.051C608.784 140.017 608.244 137.659 608.244 134.977C608.244 132.295 608.784 129.943 609.864 127.92C610.943 125.886 612.494 124.307 614.517 123.182C616.54 122.045 618.972 121.477 621.812 121.477C624.653 121.477 627.085 122.045 629.108 123.182C631.131 124.307 632.682 125.886 633.761 127.92C634.841 129.943 635.381 132.295 635.381 134.977C635.381 137.659 634.841 140.017 633.761 142.051C632.682 144.074 631.131 145.653 629.108 146.79C627.085 147.915 624.653 148.477 621.812 148.477ZM621.881 141.523C622.676 141.523 623.364 141.256 623.943 140.722C624.523 140.187 624.972 139.426 625.29 138.438C625.608 137.449 625.767 136.273 625.767 134.909C625.767 133.534 625.608 132.358 625.29 131.381C624.972 130.392 624.523 129.631 623.943 129.097C623.364 128.562 622.676 128.295 621.881 128.295C621.04 128.295 620.318 128.562 619.716 129.097C619.114 129.631 618.653 130.392 618.335 131.381C618.017 132.358 617.858 133.534 617.858 134.909C617.858 136.273 618.017 137.449 618.335 138.438C618.653 139.426 619.114 140.187 619.716 140.722C620.318 141.256 621.04 141.523 621.881 141.523ZM656.176 136.545V121.818H665.585V148H656.653V143.023H656.381C655.813 144.693 654.818 146 653.398 146.943C651.977 147.875 650.29 148.341 648.335 148.341C646.506 148.341 644.903 147.92 643.528 147.08C642.165 146.239 641.102 145.08 640.341 143.602C639.591 142.125 639.21 140.432 639.199 138.523V121.818H648.608V136.545C648.619 137.841 648.949 138.858 649.597 139.597C650.256 140.335 651.176 140.705 652.358 140.705C653.142 140.705 653.818 140.54 654.386 140.21C654.966 139.869 655.409 139.392 655.716 138.778C656.034 138.153 656.188 137.409 656.176 136.545ZM679.78 133.273V148H670.371V121.818H679.303V126.795H679.575C680.143 125.136 681.143 123.835 682.575 122.892C684.018 121.949 685.7 121.477 687.621 121.477C689.473 121.477 691.081 121.903 692.445 122.756C693.82 123.597 694.882 124.756 695.632 126.233C696.393 127.71 696.768 129.398 696.757 131.295V148H687.348V133.273C687.359 131.977 687.03 130.96 686.359 130.222C685.7 129.483 684.78 129.114 683.598 129.114C682.825 129.114 682.149 129.284 681.57 129.625C681.001 129.955 680.564 130.432 680.257 131.057C679.95 131.67 679.791 132.409 679.78 133.273ZM710.879 148.341C709.016 148.341 707.3 147.852 705.732 146.875C704.175 145.898 702.925 144.415 701.982 142.426C701.05 140.437 700.584 137.932 700.584 134.909C700.584 131.75 701.072 129.182 702.05 127.205C703.038 125.227 704.311 123.778 705.868 122.858C707.436 121.938 709.084 121.477 710.811 121.477C712.107 121.477 713.243 121.705 714.22 122.159C715.197 122.602 716.016 123.199 716.675 123.949C717.334 124.687 717.834 125.5 718.175 126.386H718.311V113.091H727.72V148H718.379V143.705H718.175C717.811 144.591 717.288 145.386 716.607 146.091C715.936 146.784 715.118 147.335 714.152 147.744C713.197 148.142 712.107 148.341 710.879 148.341ZM714.357 141.114C715.22 141.114 715.959 140.864 716.572 140.364C717.197 139.852 717.675 139.136 718.004 138.216C718.345 137.284 718.516 136.182 718.516 134.909C718.516 133.614 718.345 132.506 718.004 131.585C717.675 130.653 717.197 129.943 716.572 129.455C715.959 128.955 715.22 128.705 714.357 128.705C713.493 128.705 712.754 128.955 712.141 129.455C711.538 129.943 711.072 130.653 710.743 131.585C710.425 132.506 710.266 133.614 710.266 134.909C710.266 136.205 710.425 137.318 710.743 138.25C711.072 139.17 711.538 139.881 712.141 140.381C712.754 140.869 713.493 141.114 714.357 141.114Z" fill="black"/>
<path d="M367.545 176.545C367.409 175.394 366.856 174.5 365.886 173.864C364.917 173.227 363.727 172.909 362.318 172.909C361.288 172.909 360.386 173.076 359.614 173.409C358.848 173.742 358.25 174.201 357.818 174.784C357.394 175.367 357.182 176.03 357.182 176.773C357.182 177.394 357.33 177.928 357.625 178.375C357.928 178.814 358.314 179.182 358.784 179.477C359.254 179.765 359.746 180.004 360.261 180.193C360.777 180.375 361.25 180.523 361.682 180.636L364.045 181.273C364.652 181.432 365.326 181.652 366.068 181.932C366.818 182.212 367.534 182.595 368.216 183.08C368.905 183.557 369.473 184.17 369.92 184.92C370.367 185.67 370.591 186.591 370.591 187.682C370.591 188.939 370.261 190.076 369.602 191.091C368.951 192.106 367.996 192.913 366.739 193.511C365.489 194.11 363.97 194.409 362.182 194.409C360.515 194.409 359.072 194.14 357.852 193.602C356.64 193.064 355.686 192.314 354.989 191.352C354.299 190.39 353.909 189.273 353.818 188H356.727C356.803 188.879 357.098 189.606 357.614 190.182C358.136 190.75 358.795 191.174 359.591 191.455C360.394 191.727 361.258 191.864 362.182 191.864C363.258 191.864 364.223 191.689 365.08 191.341C365.936 190.985 366.614 190.492 367.114 189.864C367.614 189.227 367.864 188.485 367.864 187.636C367.864 186.864 367.648 186.235 367.216 185.75C366.784 185.265 366.216 184.871 365.511 184.568C364.807 184.265 364.045 184 363.227 183.773L360.364 182.955C358.545 182.432 357.106 181.686 356.045 180.716C354.985 179.746 354.455 178.477 354.455 176.909C354.455 175.606 354.807 174.47 355.511 173.5C356.223 172.523 357.178 171.765 358.375 171.227C359.58 170.682 360.924 170.409 362.409 170.409C363.909 170.409 365.242 170.678 366.409 171.216C367.576 171.746 368.5 172.473 369.182 173.398C369.871 174.322 370.235 175.371 370.273 176.545H367.545ZM381.952 194.364C380.376 194.364 378.993 193.989 377.804 193.239C376.622 192.489 375.698 191.439 375.031 190.091C374.372 188.742 374.043 187.167 374.043 185.364C374.043 183.545 374.372 181.958 375.031 180.602C375.698 179.246 376.622 178.193 377.804 177.443C378.993 176.693 380.376 176.318 381.952 176.318C383.527 176.318 384.906 176.693 386.088 177.443C387.277 178.193 388.202 179.246 388.861 180.602C389.527 181.958 389.861 183.545 389.861 185.364C389.861 187.167 389.527 188.742 388.861 190.091C388.202 191.439 387.277 192.489 386.088 193.239C384.906 193.989 383.527 194.364 381.952 194.364ZM381.952 191.955C383.149 191.955 384.134 191.648 384.906 191.034C385.679 190.42 386.251 189.614 386.622 188.614C386.993 187.614 387.179 186.53 387.179 185.364C387.179 184.197 386.993 183.11 386.622 182.102C386.251 181.095 385.679 180.28 384.906 179.659C384.134 179.038 383.149 178.727 381.952 178.727C380.755 178.727 379.77 179.038 378.997 179.659C378.224 180.28 377.652 181.095 377.281 182.102C376.91 183.11 376.724 184.197 376.724 185.364C376.724 186.53 376.91 187.614 377.281 188.614C377.652 189.614 378.224 190.42 378.997 191.034C379.77 191.648 380.755 191.955 381.952 191.955ZM403.318 194V170.727H406.136V182.273H406.409L416.864 170.727H420.545L410.773 181.227L420.545 194H417.136L409.045 183.182L406.136 186.455V194H403.318ZM424.923 194V176.545H427.605V194H424.923ZM426.287 173.636C425.764 173.636 425.313 173.458 424.935 173.102C424.563 172.746 424.378 172.318 424.378 171.818C424.378 171.318 424.563 170.89 424.935 170.534C425.313 170.178 425.764 170 426.287 170C426.81 170 427.257 170.178 427.628 170.534C428.007 170.89 428.196 171.318 428.196 171.818C428.196 172.318 428.007 172.746 427.628 173.102C427.257 173.458 426.81 173.636 426.287 173.636ZM439.108 194.364C437.653 194.364 436.369 193.996 435.256 193.261C434.142 192.519 433.271 191.473 432.642 190.125C432.013 188.769 431.699 187.167 431.699 185.318C431.699 183.485 432.013 181.894 432.642 180.545C433.271 179.197 434.146 178.155 435.267 177.42C436.388 176.686 437.684 176.318 439.153 176.318C440.29 176.318 441.188 176.508 441.847 176.886C442.513 177.258 443.021 177.682 443.369 178.159C443.725 178.629 444.002 179.015 444.199 179.318H444.426V170.727H447.108V194H444.517V191.318H444.199C444.002 191.636 443.722 192.038 443.358 192.523C442.994 193 442.475 193.428 441.801 193.807C441.127 194.178 440.229 194.364 439.108 194.364ZM439.472 191.955C440.547 191.955 441.456 191.674 442.199 191.114C442.941 190.545 443.506 189.761 443.892 188.761C444.278 187.754 444.472 186.591 444.472 185.273C444.472 183.97 444.282 182.83 443.903 181.852C443.525 180.867 442.964 180.102 442.222 179.557C441.479 179.004 440.563 178.727 439.472 178.727C438.335 178.727 437.388 179.019 436.631 179.602C435.881 180.178 435.316 180.962 434.938 181.955C434.566 182.939 434.381 184.045 434.381 185.273C434.381 186.515 434.57 187.644 434.949 188.659C435.335 189.667 435.903 190.47 436.653 191.068C437.411 191.659 438.35 191.955 439.472 191.955ZM464.756 180.455L462.347 181.136C462.195 180.735 461.972 180.345 461.676 179.966C461.388 179.58 460.994 179.261 460.494 179.011C459.994 178.761 459.354 178.636 458.574 178.636C457.506 178.636 456.616 178.883 455.903 179.375C455.199 179.86 454.847 180.477 454.847 181.227C454.847 181.894 455.089 182.42 455.574 182.807C456.059 183.193 456.816 183.515 457.847 183.773L460.438 184.409C461.998 184.788 463.161 185.367 463.926 186.148C464.691 186.92 465.074 187.917 465.074 189.136C465.074 190.136 464.786 191.03 464.21 191.818C463.642 192.606 462.847 193.227 461.824 193.682C460.801 194.136 459.612 194.364 458.256 194.364C456.475 194.364 455.002 193.977 453.835 193.205C452.669 192.432 451.93 191.303 451.619 189.818L454.165 189.182C454.407 190.121 454.866 190.826 455.54 191.295C456.222 191.765 457.112 192 458.21 192C459.46 192 460.453 191.735 461.188 191.205C461.93 190.667 462.301 190.023 462.301 189.273C462.301 188.667 462.089 188.159 461.665 187.75C461.241 187.333 460.589 187.023 459.71 186.818L456.801 186.136C455.203 185.758 454.028 185.17 453.278 184.375C452.536 183.572 452.165 182.568 452.165 181.364C452.165 180.379 452.441 179.508 452.994 178.75C453.555 177.992 454.316 177.398 455.278 176.966C456.248 176.534 457.347 176.318 458.574 176.318C460.301 176.318 461.657 176.697 462.642 177.455C463.634 178.212 464.339 179.212 464.756 180.455ZM497.202 178H494.384C494.217 177.189 493.925 176.477 493.509 175.864C493.099 175.25 492.599 174.735 492.009 174.318C491.425 173.894 490.777 173.576 490.065 173.364C489.353 173.152 488.611 173.045 487.838 173.045C486.429 173.045 485.152 173.402 484.009 174.114C482.872 174.826 481.967 175.875 481.293 177.261C480.626 178.648 480.293 180.348 480.293 182.364C480.293 184.379 480.626 186.08 481.293 187.466C481.967 188.852 482.872 189.902 484.009 190.614C485.152 191.326 486.429 191.682 487.838 191.682C488.611 191.682 489.353 191.576 490.065 191.364C490.777 191.152 491.425 190.837 492.009 190.42C492.599 189.996 493.099 189.477 493.509 188.864C493.925 188.242 494.217 187.53 494.384 186.727H497.202C496.99 187.917 496.603 188.981 496.043 189.92C495.482 190.86 494.785 191.659 493.952 192.318C493.118 192.97 492.183 193.466 491.145 193.807C490.115 194.148 489.012 194.318 487.838 194.318C485.853 194.318 484.088 193.833 482.543 192.864C480.997 191.894 479.781 190.515 478.895 188.727C478.009 186.939 477.565 184.818 477.565 182.364C477.565 179.909 478.009 177.788 478.895 176C479.781 174.212 480.997 172.833 482.543 171.864C484.088 170.894 485.853 170.409 487.838 170.409C489.012 170.409 490.115 170.58 491.145 170.92C492.183 171.261 493.118 171.761 493.952 172.42C494.785 173.072 495.482 173.867 496.043 174.807C496.603 175.739 496.99 176.803 497.202 178ZM506.528 194.409C505.422 194.409 504.419 194.201 503.517 193.784C502.616 193.36 501.9 192.75 501.369 191.955C500.839 191.152 500.574 190.182 500.574 189.045C500.574 188.045 500.771 187.235 501.165 186.614C501.559 185.985 502.085 185.492 502.744 185.136C503.403 184.78 504.131 184.515 504.926 184.341C505.729 184.159 506.536 184.015 507.347 183.909C508.407 183.773 509.267 183.67 509.926 183.602C510.593 183.527 511.078 183.402 511.381 183.227C511.691 183.053 511.847 182.75 511.847 182.318V182.227C511.847 181.106 511.54 180.235 510.926 179.614C510.32 178.992 509.4 178.682 508.165 178.682C506.884 178.682 505.881 178.962 505.153 179.523C504.426 180.083 503.915 180.682 503.619 181.318L501.074 180.409C501.528 179.348 502.134 178.523 502.892 177.932C503.657 177.333 504.491 176.917 505.392 176.682C506.301 176.439 507.195 176.318 508.074 176.318C508.634 176.318 509.278 176.386 510.006 176.523C510.741 176.652 511.449 176.92 512.131 177.33C512.82 177.739 513.392 178.356 513.847 179.182C514.301 180.008 514.528 181.114 514.528 182.5V194H511.847V191.636H511.71C511.528 192.015 511.225 192.42 510.801 192.852C510.377 193.284 509.813 193.652 509.108 193.955C508.403 194.258 507.544 194.409 506.528 194.409ZM506.938 192C507.998 192 508.892 191.792 509.619 191.375C510.354 190.958 510.907 190.42 511.278 189.761C511.657 189.102 511.847 188.409 511.847 187.682V185.227C511.733 185.364 511.483 185.489 511.097 185.602C510.718 185.708 510.278 185.803 509.778 185.886C509.286 185.962 508.805 186.03 508.335 186.091C507.873 186.144 507.498 186.189 507.21 186.227C506.513 186.318 505.862 186.466 505.256 186.67C504.657 186.867 504.172 187.167 503.801 187.568C503.438 187.962 503.256 188.5 503.256 189.182C503.256 190.114 503.6 190.818 504.29 191.295C504.987 191.765 505.869 192 506.938 192ZM522.105 183.5V194H519.423V176.545H522.014V179.273H522.241C522.651 178.386 523.272 177.674 524.105 177.136C524.938 176.591 526.014 176.318 527.332 176.318C528.514 176.318 529.548 176.561 530.435 177.045C531.321 177.523 532.01 178.25 532.503 179.227C532.995 180.197 533.241 181.424 533.241 182.909V194H530.56V183.091C530.56 181.72 530.204 180.652 529.491 179.886C528.779 179.114 527.802 178.727 526.56 178.727C525.704 178.727 524.938 178.913 524.264 179.284C523.598 179.655 523.071 180.197 522.685 180.909C522.298 181.621 522.105 182.485 522.105 183.5ZM547.506 194V170.727H550.324V191.5H561.142V194H547.506ZM572.46 194.364C570.778 194.364 569.328 193.992 568.108 193.25C566.896 192.5 565.96 191.455 565.301 190.114C564.65 188.765 564.324 187.197 564.324 185.409C564.324 183.621 564.65 182.045 565.301 180.682C565.96 179.311 566.877 178.242 568.051 177.477C569.233 176.705 570.612 176.318 572.188 176.318C573.097 176.318 573.994 176.47 574.881 176.773C575.767 177.076 576.574 177.568 577.301 178.25C578.028 178.924 578.608 179.818 579.04 180.932C579.472 182.045 579.688 183.417 579.688 185.045V186.182H566.233V183.864H576.96C576.96 182.879 576.763 182 576.369 181.227C575.983 180.455 575.43 179.845 574.71 179.398C573.998 178.951 573.157 178.727 572.188 178.727C571.119 178.727 570.195 178.992 569.415 179.523C568.642 180.045 568.047 180.727 567.631 181.568C567.214 182.409 567.006 183.311 567.006 184.273V185.818C567.006 187.136 567.233 188.254 567.688 189.17C568.15 190.08 568.79 190.773 569.608 191.25C570.426 191.72 571.377 191.955 572.46 191.955C573.165 191.955 573.801 191.856 574.369 191.659C574.945 191.455 575.441 191.152 575.858 190.75C576.275 190.341 576.597 189.833 576.824 189.227L579.415 189.955C579.142 190.833 578.684 191.606 578.04 192.273C577.396 192.932 576.6 193.447 575.653 193.818C574.706 194.182 573.642 194.364 572.46 194.364ZM588.903 194.409C587.797 194.409 586.794 194.201 585.892 193.784C584.991 193.36 584.275 192.75 583.744 191.955C583.214 191.152 582.949 190.182 582.949 189.045C582.949 188.045 583.146 187.235 583.54 186.614C583.934 185.985 584.46 185.492 585.119 185.136C585.778 184.78 586.506 184.515 587.301 184.341C588.104 184.159 588.911 184.015 589.722 183.909C590.782 183.773 591.642 183.67 592.301 183.602C592.968 183.527 593.453 183.402 593.756 183.227C594.066 183.053 594.222 182.75 594.222 182.318V182.227C594.222 181.106 593.915 180.235 593.301 179.614C592.695 178.992 591.775 178.682 590.54 178.682C589.259 178.682 588.256 178.962 587.528 179.523C586.801 180.083 586.29 180.682 585.994 181.318L583.449 180.409C583.903 179.348 584.509 178.523 585.267 177.932C586.032 177.333 586.866 176.917 587.767 176.682C588.676 176.439 589.57 176.318 590.449 176.318C591.009 176.318 591.653 176.386 592.381 176.523C593.116 176.652 593.824 176.92 594.506 177.33C595.195 177.739 595.767 178.356 596.222 179.182C596.676 180.008 596.903 181.114 596.903 182.5V194H594.222V191.636H594.085C593.903 192.015 593.6 192.42 593.176 192.852C592.752 193.284 592.188 193.652 591.483 193.955C590.778 194.258 589.919 194.409 588.903 194.409ZM589.312 192C590.373 192 591.267 191.792 591.994 191.375C592.729 190.958 593.282 190.42 593.653 189.761C594.032 189.102 594.222 188.409 594.222 187.682V185.227C594.108 185.364 593.858 185.489 593.472 185.602C593.093 185.708 592.653 185.803 592.153 185.886C591.661 185.962 591.18 186.03 590.71 186.091C590.248 186.144 589.873 186.189 589.585 186.227C588.888 186.318 588.237 186.466 587.631 186.67C587.032 186.867 586.547 187.167 586.176 187.568C585.813 187.962 585.631 188.5 585.631 189.182C585.631 190.114 585.975 190.818 586.665 191.295C587.362 191.765 588.244 192 589.312 192ZM601.798 194V176.545H604.389V179.182H604.571C604.889 178.318 605.465 177.617 606.298 177.08C607.132 176.542 608.071 176.273 609.116 176.273C609.313 176.273 609.56 176.277 609.855 176.284C610.151 176.292 610.374 176.303 610.526 176.318V179.045C610.435 179.023 610.226 178.989 609.901 178.943C609.582 178.89 609.245 178.864 608.889 178.864C608.041 178.864 607.283 179.042 606.616 179.398C605.957 179.746 605.435 180.231 605.048 180.852C604.67 181.466 604.48 182.167 604.48 182.955V194H601.798ZM616.386 183.5V194H613.705V176.545H616.295V179.273H616.523C616.932 178.386 617.553 177.674 618.386 177.136C619.22 176.591 620.295 176.318 621.614 176.318C622.795 176.318 623.83 176.561 624.716 177.045C625.602 177.523 626.292 178.25 626.784 179.227C627.277 180.197 627.523 181.424 627.523 182.909V194H624.841V183.091C624.841 181.72 624.485 180.652 623.773 179.886C623.061 179.114 622.083 178.727 620.841 178.727C619.985 178.727 619.22 178.913 618.545 179.284C617.879 179.655 617.352 180.197 616.966 180.909C616.58 181.621 616.386 182.485 616.386 183.5ZM649.014 176.545V178.818H639.969V176.545H649.014ZM642.605 172.364H645.287V189C645.287 189.758 645.397 190.326 645.616 190.705C645.844 191.076 646.132 191.326 646.48 191.455C646.836 191.576 647.211 191.636 647.605 191.636C647.901 191.636 648.143 191.621 648.332 191.591C648.522 191.553 648.673 191.523 648.787 191.5L649.332 193.909C649.151 193.977 648.897 194.045 648.571 194.114C648.245 194.189 647.832 194.227 647.332 194.227C646.575 194.227 645.832 194.064 645.105 193.739C644.385 193.413 643.787 192.917 643.31 192.25C642.84 191.583 642.605 190.742 642.605 189.727V172.364ZM659.952 194.364C658.376 194.364 656.993 193.989 655.804 193.239C654.622 192.489 653.698 191.439 653.031 190.091C652.372 188.742 652.043 187.167 652.043 185.364C652.043 183.545 652.372 181.958 653.031 180.602C653.698 179.246 654.622 178.193 655.804 177.443C656.993 176.693 658.376 176.318 659.952 176.318C661.527 176.318 662.906 176.693 664.088 177.443C665.277 178.193 666.202 179.246 666.861 180.602C667.527 181.958 667.861 183.545 667.861 185.364C667.861 187.167 667.527 188.742 666.861 190.091C666.202 191.439 665.277 192.489 664.088 193.239C662.906 193.989 661.527 194.364 659.952 194.364ZM659.952 191.955C661.149 191.955 662.134 191.648 662.906 191.034C663.679 190.42 664.251 189.614 664.622 188.614C664.993 187.614 665.179 186.53 665.179 185.364C665.179 184.197 664.993 183.11 664.622 182.102C664.251 181.095 663.679 180.28 662.906 179.659C662.134 179.038 661.149 178.727 659.952 178.727C658.755 178.727 657.77 179.038 656.997 179.659C656.224 180.28 655.652 181.095 655.281 182.102C654.91 183.11 654.724 184.197 654.724 185.364C654.724 186.53 654.91 187.614 655.281 188.614C655.652 189.614 656.224 190.42 656.997 191.034C657.77 191.648 658.755 191.955 659.952 191.955ZM700.045 178H697.227C697.061 177.189 696.769 176.477 696.352 175.864C695.943 175.25 695.443 174.735 694.852 174.318C694.269 173.894 693.621 173.576 692.909 173.364C692.197 173.152 691.455 173.045 690.682 173.045C689.273 173.045 687.996 173.402 686.852 174.114C685.716 174.826 684.811 175.875 684.136 177.261C683.47 178.648 683.136 180.348 683.136 182.364C683.136 184.379 683.47 186.08 684.136 187.466C684.811 188.852 685.716 189.902 686.852 190.614C687.996 191.326 689.273 191.682 690.682 191.682C691.455 191.682 692.197 191.576 692.909 191.364C693.621 191.152 694.269 190.837 694.852 190.42C695.443 189.996 695.943 189.477 696.352 188.864C696.769 188.242 697.061 187.53 697.227 186.727H700.045C699.833 187.917 699.447 188.981 698.886 189.92C698.326 190.86 697.629 191.659 696.795 192.318C695.962 192.97 695.027 193.466 693.989 193.807C692.958 194.148 691.856 194.318 690.682 194.318C688.697 194.318 686.932 193.833 685.386 192.864C683.841 191.894 682.625 190.515 681.739 188.727C680.852 186.939 680.409 184.818 680.409 182.364C680.409 179.909 680.852 177.788 681.739 176C682.625 174.212 683.841 172.833 685.386 171.864C686.932 170.894 688.697 170.409 690.682 170.409C691.856 170.409 692.958 170.58 693.989 170.92C695.027 171.261 695.962 171.761 696.795 172.42C697.629 173.072 698.326 173.867 698.886 174.807C699.447 175.739 699.833 176.803 700.045 178ZM711.327 194.364C709.751 194.364 708.368 193.989 707.179 193.239C705.997 192.489 705.073 191.439 704.406 190.091C703.747 188.742 703.418 187.167 703.418 185.364C703.418 183.545 703.747 181.958 704.406 180.602C705.073 179.246 705.997 178.193 707.179 177.443C708.368 176.693 709.751 176.318 711.327 176.318C712.902 176.318 714.281 176.693 715.463 177.443C716.652 178.193 717.577 179.246 718.236 180.602C718.902 181.958 719.236 183.545 719.236 185.364C719.236 187.167 718.902 188.742 718.236 190.091C717.577 191.439 716.652 192.489 715.463 193.239C714.281 193.989 712.902 194.364 711.327 194.364ZM711.327 191.955C712.524 191.955 713.509 191.648 714.281 191.034C715.054 190.42 715.626 189.614 715.997 188.614C716.368 187.614 716.554 186.53 716.554 185.364C716.554 184.197 716.368 183.11 715.997 182.102C715.626 181.095 715.054 180.28 714.281 179.659C713.509 179.038 712.524 178.727 711.327 178.727C710.13 178.727 709.145 179.038 708.372 179.659C707.599 180.28 707.027 181.095 706.656 182.102C706.285 183.11 706.099 184.197 706.099 185.364C706.099 186.53 706.285 187.614 706.656 188.614C707.027 189.614 707.599 190.42 708.372 191.034C709.145 191.648 710.13 191.955 711.327 191.955ZM729.92 194.364C728.466 194.364 727.182 193.996 726.068 193.261C724.955 192.519 724.083 191.473 723.455 190.125C722.826 188.769 722.511 187.167 722.511 185.318C722.511 183.485 722.826 181.894 723.455 180.545C724.083 179.197 724.958 178.155 726.08 177.42C727.201 176.686 728.496 176.318 729.966 176.318C731.102 176.318 732 176.508 732.659 176.886C733.326 177.258 733.833 177.682 734.182 178.159C734.538 178.629 734.814 179.015 735.011 179.318H735.239V170.727H737.92V194H735.33V191.318H735.011C734.814 191.636 734.534 192.038 734.17 192.523C733.807 193 733.288 193.428 732.614 193.807C731.939 194.178 731.042 194.364 729.92 194.364ZM730.284 191.955C731.36 191.955 732.269 191.674 733.011 191.114C733.754 190.545 734.318 189.761 734.705 188.761C735.091 187.754 735.284 186.591 735.284 185.273C735.284 183.97 735.095 182.83 734.716 181.852C734.337 180.867 733.777 180.102 733.034 179.557C732.292 179.004 731.375 178.727 730.284 178.727C729.148 178.727 728.201 179.019 727.443 179.602C726.693 180.178 726.129 180.962 725.75 181.955C725.379 182.939 725.193 184.045 725.193 185.273C725.193 186.515 725.383 187.644 725.761 188.659C726.148 189.667 726.716 190.47 727.466 191.068C728.223 191.659 729.163 191.955 730.284 191.955ZM750.523 194.364C748.841 194.364 747.39 193.992 746.17 193.25C744.958 192.5 744.023 191.455 743.364 190.114C742.712 188.765 742.386 187.197 742.386 185.409C742.386 183.621 742.712 182.045 743.364 180.682C744.023 179.311 744.939 178.242 746.114 177.477C747.295 176.705 748.674 176.318 750.25 176.318C751.159 176.318 752.057 176.47 752.943 176.773C753.83 177.076 754.636 177.568 755.364 178.25C756.091 178.924 756.67 179.818 757.102 180.932C757.534 182.045 757.75 183.417 757.75 185.045V186.182H744.295V183.864H755.023C755.023 182.879 754.826 182 754.432 181.227C754.045 180.455 753.492 179.845 752.773 179.398C752.061 178.951 751.22 178.727 750.25 178.727C749.182 178.727 748.258 178.992 747.477 179.523C746.705 180.045 746.11 180.727 745.693 181.568C745.277 182.409 745.068 183.311 745.068 184.273V185.818C745.068 187.136 745.295 188.254 745.75 189.17C746.212 190.08 746.852 190.773 747.67 191.25C748.489 191.72 749.439 191.955 750.523 191.955C751.227 191.955 751.864 191.856 752.432 191.659C753.008 191.455 753.504 191.152 753.92 190.75C754.337 190.341 754.659 189.833 754.886 189.227L757.477 189.955C757.205 190.833 756.746 191.606 756.102 192.273C755.458 192.932 754.663 193.447 753.716 193.818C752.769 194.182 751.705 194.364 750.523 194.364Z" fill="black"/>
<path d="M160 79.6172C160 75.4103 163.41 72 167.617 72H308.383C312.59 72 316 75.4103 316 79.6172V220.383C316 224.59 312.59 228 308.383 228H167.617C163.41 228 160 224.59 160 220.383V79.6172Z" fill="#1E4D95"/>
<path d="M194.094 141.463C195.304 133.136 203.035 127.368 211.361 128.578L252.669 134.582C260.995 135.792 266.764 143.523 265.554 151.849L259.55 193.157C258.34 201.484 250.609 207.252 242.283 206.042L200.974 200.038C192.648 198.828 186.88 191.097 188.09 182.771L194.094 141.463Z" fill="white"/>
<path d="M207.246 96.5914C206.899 94.6424 208.197 92.7809 210.146 92.4335C212.095 92.0862 213.957 93.3847 214.304 95.3337L218.189 117.134C218.536 119.083 217.238 120.944 215.289 121.292C213.34 121.639 211.478 120.341 211.131 118.392L207.246 96.5914Z" fill="white"/>
<path d="M237.435 95.5044C237.72 93.5452 239.539 92.1879 241.498 92.4726C243.457 92.7574 244.814 94.5764 244.53 96.5356L241.345 118.449C241.06 120.408 239.241 121.765 237.282 121.481C235.323 121.196 233.965 119.377 234.25 117.418L237.435 95.5044Z" fill="white"/>
<path d="M265.263 103.731C266.18 101.977 268.346 101.298 270.1 102.216C271.855 103.133 272.533 105.299 271.615 107.054L261.353 126.675C260.435 128.43 258.27 129.108 256.515 128.191C254.761 127.273 254.083 125.107 255 123.353L265.263 103.731Z" fill="white"/>
<path d="M293.477 122.689C295.085 121.534 297.325 121.901 298.48 123.509C299.635 125.117 299.268 127.356 297.66 128.512L279.676 141.431C278.068 142.586 275.828 142.219 274.673 140.611C273.518 139.003 273.885 136.764 275.493 135.609L293.477 122.689Z" fill="white"/>
<path d="M177.331 105.044C176.342 103.33 176.929 101.138 178.643 100.148C180.358 99.1579 182.55 99.7453 183.54 101.46L194.612 120.637C195.602 122.351 195.014 124.544 193.3 125.533C191.585 126.523 189.393 125.936 188.403 124.221L177.331 105.044Z" fill="white"/>
</svg>
